<?xml version="1.0" standalone="no"?>
<!DOCTYPE svg PUBLIC "-//W3C//DTD SVG 20010904//EN"
 "http://www.w3.org/TR/2001/REC-SVG-20010904/DTD/svg10.dtd">
<svg version="1.0" xmlns="http://www.w3.org/2000/svg"
 width="930.000000pt" height="930.000000pt" viewBox="0 0 930.000000 930.000000"
 preserveAspectRatio="xMidYMid meet">
<metadata>
Created by potrace 1.11, written by Peter Selinger 2001-2013
</metadata>
<g transform="translate(0.000000,930.000000) scale(0.100000,-0.100000)"
fill="#000000" stroke="none">
<path d="M4682 9048 c-7 -7 -12 -15 -12 -19 0 -3 -18 -39 -41 -80 -22 -41 -40
-74 -39 -74 3 0 -52 -112 -75 -152 -13 -24 -20 -43 -17 -43 4 0 3 -4 -3 -8 -5
-4 -61 -108 -124 -232 -248 -490 -343 -675 -350 -685 -4 -5 -16 -30 -26 -55
-11 -25 -22 -47 -25 -50 -9 -9 -81 -159 -80 -166 1 -4 -2 -10 -7 -13 -5 -3
-44 -76 -87 -161 -43 -85 -82 -159 -87 -164 -5 -6 -9 -18 -9 -27 0 -10 -3 -19
-7 -21 -10 -4 -117 -214 -114 -224 2 -4 -1 -10 -6 -13 -10 -7 -73 -126 -73
-138 0 -4 520 -8 1155 -8 635 0 1155 4 1155 9 0 4 -27 64 -60 133 -33 68 -60
128 -60 134 0 5 -4 9 -10 9 -5 0 -10 7 -10 15 0 9 -19 52 -42 98 -23 45 -42
84 -43 87 -1 5 -59 128 -133 280 -26 52 -47 97 -48 100 0 3 -33 73 -73 155
-40 83 -90 186 -111 230 -21 44 -68 143 -105 220 -37 77 -89 185 -115 240 -45
94 -95 199 -219 457 -28 59 -51 110 -51 112 0 3 -8 19 -18 36 -14 23 -21 27
-30 18z"/>
<path d="M2506 6093 c-1 -1 -26 -5 -56 -8 -30 -3 -68 -8 -85 -11 -16 -3 -48
-7 -70 -9 -22 -2 -56 -7 -75 -10 -19 -3 -53 -7 -75 -10 -60 -6 -137 -17 -160
-21 -19 -4 -85 -12 -150 -19 -16 -2 -30 -4 -30 -5 0 -1 -16 -3 -35 -5 -19 -1
-35 -3 -35 -4 0 -3 -36 -7 -111 -15 -29 -3 -65 -7 -80 -10 -45 -7 -168 -24
-234 -31 -19 -2 -51 -6 -70 -9 -19 -3 -60 -8 -90 -11 -30 -4 -62 -8 -70 -10
-20 -5 -96 -16 -145 -21 -22 -2 -56 -6 -75 -9 -33 -5 -52 -8 -155 -20 -22 -3
-51 -7 -65 -9 -29 -5 -95 -13 -160 -21 -25 -3 -72 -10 -105 -15 -33 -5 -80
-12 -105 -14 -25 -3 -65 -8 -90 -12 -61 -8 -101 -12 -127 -13 -13 -1 -23 -5
-23 -9 0 -5 477 -485 1061 -1068 583 -582 1086 -1086 1117 -1118 31 -33 67
-68 79 -79 12 -10 20 -24 18 -31 -2 -6 -7 -29 -10 -51 -3 -22 -10 -57 -16 -77
-5 -20 -9 -40 -8 -45 1 -4 0 -10 -1 -13 -3 -8 -7 -31 -14 -75 -11 -65 -16 -96
-31 -170 -7 -38 -17 -88 -21 -110 -4 -22 -8 -44 -9 -50 -2 -5 -6 -28 -9 -50
-4 -22 -8 -47 -11 -55 -2 -8 -6 -31 -9 -50 -3 -19 -7 -44 -9 -55 -3 -11 -7
-36 -11 -55 -3 -19 -8 -46 -11 -60 -3 -14 -8 -41 -10 -60 -3 -19 -9 -53 -14
-75 -5 -22 -12 -56 -16 -75 -3 -19 -7 -44 -9 -55 -3 -11 -7 -39 -11 -63 -9
-57 -13 -77 -15 -77 -1 0 -3 -11 -5 -25 -5 -35 -12 -76 -25 -140 -6 -30 -13
-70 -16 -89 -3 -18 -8 -43 -10 -55 -3 -11 -7 -34 -10 -51 -3 -16 -12 -66 -21
-110 -9 -44 -17 -89 -19 -100 -4 -29 -15 -94 -20 -119 -2 -11 -7 -36 -10 -55
-3 -18 -8 -43 -10 -55 -3 -11 -7 -37 -10 -56 -2 -19 -6 -42 -9 -50 -2 -8 -21
-103 -41 -210 -19 -107 -38 -206 -41 -220 -2 -14 -6 -38 -8 -55 -2 -16 -4 -30
-5 -30 -4 0 -29 -134 -35 -190 -1 -16 -5 -37 -8 -45 -4 -8 -11 -42 -17 -75 -5
-33 -12 -70 -14 -82 -3 -13 -1 -25 5 -28 5 -4 9 -1 9 6 0 7 3 9 7 6 3 -4 11
-3 17 2 6 5 94 51 196 102 102 51 187 97 188 101 2 4 9 8 15 8 16 0 120 53
129 65 4 6 8 6 8 2 0 -5 13 1 29 12 16 12 36 21 44 21 9 0 17 3 19 8 2 4 102
57 223 117 121 61 222 113 223 118 2 4 12 7 22 7 10 0 20 3 22 8 2 4 93 52
203 107 110 55 202 103 205 107 3 3 18 10 33 13 15 4 27 11 27 15 0 5 13 11
30 15 16 4 32 11 36 16 5 9 79 43 79 37 0 -2 7 3 15 10 8 7 80 45 160 86 80
40 249 126 377 191 l232 118 -1 121 c0 67 1 126 2 131 1 6 1 15 0 20 -2 14 -3
288 0 300 1 6 1 15 0 20 -5 26 -2 274 4 284 4 6 4 11 -1 11 -9 0 -9 921 0 945
4 8 3 15 -1 15 -6 0 -8 297 -2 325 1 6 1 15 0 20 -2 14 -3 288 0 300 1 6 1 15
0 20 -5 26 -2 274 4 284 4 6 4 11 -1 11 -9 0 -9 921 0 945 4 8 3 15 -1 15 -8
0 -7 282 1 305 4 8 3 15 -1 15 -4 0 -6 90 -5 200 1 110 -1 200 -5 201 -13 2
-1764 4 -1766 2z"/>
<path d="M5025 6090 c-2 -3 -3 -1028 -3 -2277 l0 -2273 41 -24 c23 -13 71 -39
107 -57 36 -19 67 -36 70 -39 3 -3 32 -18 65 -35 33 -16 63 -34 67 -40 5 -7 8
-7 8 0 0 7 3 7 8 0 4 -5 36 -26 72 -45 36 -19 83 -44 105 -56 22 -12 69 -38
105 -56 90 -47 154 -82 160 -88 3 -3 25 -16 50 -28 107 -56 153 -80 279 -149
73 -40 137 -73 142 -73 5 0 9 -5 9 -12 0 -6 3 -8 7 -5 3 4 11 3 17 -2 6 -6 36
-23 66 -39 100 -52 175 -94 184 -103 6 -5 18 -9 27 -9 10 0 19 -4 21 -9 2 -5
32 -23 68 -41 36 -18 72 -39 82 -47 9 -8 22 -15 30 -17 7 -1 18 -4 23 -8 32
-20 95 -54 130 -71 22 -11 48 -26 58 -35 9 -8 17 -12 17 -7 0 4 6 3 13 -3 6
-5 32 -21 57 -35 121 -66 162 -88 243 -131 91 -48 102 -52 92 -36 -7 12 -13
39 -20 95 -3 22 -7 49 -9 60 -2 11 -7 40 -10 65 -3 25 -9 59 -12 75 -3 17 -7
46 -9 65 -2 19 -5 35 -6 35 -2 0 -5 19 -13 75 -17 118 -15 111 -42 260 -3 19
-7 51 -9 70 -2 19 -7 46 -10 60 -4 14 -8 45 -11 70 -2 25 -6 56 -10 70 -3 14
-7 34 -9 45 -10 61 -26 164 -30 190 -2 17 -9 57 -14 90 -5 33 -12 78 -16 100
-3 22 -13 78 -20 125 -8 47 -17 101 -19 120 -3 19 -8 53 -11 75 -3 22 -8 51
-10 65 -2 14 -4 25 -5 25 -1 0 -3 9 -4 20 -3 25 -19 128 -21 135 -1 6 -17 107
-21 135 -1 11 -5 34 -8 50 -3 17 -12 75 -21 130 -19 124 -23 150 -25 150 -1 0
-3 16 -5 35 -2 19 -5 46 -8 60 -9 42 -29 173 -32 205 -1 17 -5 37 -8 45 -2 8
-10 53 -17 100 -12 88 -16 111 -23 145 -3 11 -8 46 -12 78 l-7 58 60 57 c50
48 265 252 402 382 99 94 369 351 415 395 29 28 123 118 210 200 87 83 180
170 206 195 66 63 344 328 389 370 20 19 110 105 200 190 90 85 195 185 234
222 39 38 74 68 79 68 4 0 7 7 7 15 0 8 3 15 8 15 12 0 125 110 119 116 -3 3
-20 7 -38 10 -19 3 -45 7 -59 9 -14 2 -43 7 -65 10 -22 3 -67 10 -99 16 -33 6
-78 13 -100 15 -23 3 -50 8 -61 11 -11 3 -33 7 -50 9 -41 4 -95 11 -125 17
-14 3 -43 8 -65 11 -22 3 -51 8 -65 10 -72 13 -108 19 -132 20 -16 0 -28 3
-28 6 0 3 -12 5 -27 6 -26 1 -56 5 -143 21 -19 3 -46 7 -60 9 -31 4 -156 24
-190 30 -14 3 -38 7 -55 9 -16 2 -43 6 -60 9 -16 4 -50 9 -75 12 -25 3 -52 7
-60 9 -18 5 -95 16 -131 20 -14 1 -30 4 -35 7 -5 2 -22 5 -39 6 -30 2 -70 9
-70 12 0 2 -20 5 -90 14 -27 3 -61 8 -75 11 -26 5 -97 15 -140 20 -14 2 -25 4
-25 5 0 3 -38 9 -86 15 -25 3 -56 8 -70 10 -59 12 -131 23 -192 30 -27 3 -52
7 -56 10 -5 2 -30 7 -57 10 -27 2 -58 6 -69 9 -11 2 -40 7 -65 12 -48 8 -1480
12 -1485 4z"/>
</g>
</svg>
