<?xml version="1.0" standalone="no"?>
<!DOCTYPE svg PUBLIC "-//W3C//DTD SVG 20010904//EN"
 "http://www.w3.org/TR/2001/REC-SVG-20010904/DTD/svg10.dtd">
<svg version="1.0" xmlns="http://www.w3.org/2000/svg"
 width="768.000000pt" height="768.000000pt" viewBox="0 0 768.000000 768.000000"
 preserveAspectRatio="xMidYMid meet">
<metadata>
Created by potrace 1.11, written by Peter Selinger 2001-2013
</metadata>
<g transform="translate(0.000000,768.000000) scale(0.100000,-0.100000)"
fill="#000000" stroke="none">
<path d="M4255 7614 c-44 -31 -81 -61 -83 -65 -2 -5 -10 -9 -17 -9 -7 0 -15
-4 -17 -8 -1 -4 -28 -26 -59 -47 -59 -42 -66 -48 -256 -202 -279 -228 -652
-586 -834 -803 -11 -14 -35 -41 -52 -60 -94 -104 -266 -320 -384 -485 -40 -55
-76 -104 -80 -110 -27 -34 -226 -341 -258 -396 -116 -201 -199 -352 -258 -469
-39 -80 -75 -147 -78 -150 -4 -3 -9 -15 -13 -28 -4 -12 -26 -62 -49 -110 -23
-48 -42 -89 -42 -92 -1 -3 -9 -23 -19 -45 -18 -42 -134 -335 -165 -420 -23
-63 -58 -166 -76 -225 -86 -281 -105 -348 -108 -365 -2 -11 -7 -27 -10 -35 -4
-8 -23 -85 -42 -170 -46 -202 -46 -202 -49 -220 -4 -22 -18 -92 -23 -115 -6
-31 -53 -306 -58 -344 -11 -83 -16 -118 -20 -141 -5 -28 -16 -136 -20 -190 -1
-19 -5 -62 -9 -95 -35 -302 -40 -959 -12 -1335 8 -102 17 -198 22 -245 3 -27
8 -68 10 -90 2 -22 5 -56 8 -75 2 -19 7 -57 10 -85 4 -27 9 -63 12 -80 3 -16
7 -46 9 -65 7 -61 22 -140 28 -146 3 -3 14 7 24 23 10 15 22 33 28 39 5 6 17
22 25 34 21 31 115 159 142 194 13 15 27 37 32 47 5 11 13 19 18 19 4 0 8 6 8
14 0 8 3 16 8 18 4 2 92 118 197 258 104 140 192 257 195 260 3 3 46 57 95
120 49 63 100 129 114 145 14 17 40 48 56 69 37 48 281 344 306 371 10 11 28
31 40 45 26 31 127 145 195 219 l52 55 58 -49 c33 -27 61 -52 64 -55 9 -9 123
-103 175 -145 28 -22 55 -44 62 -50 15 -13 27 -22 83 -65 25 -19 47 -37 50
-40 10 -11 306 -227 363 -265 31 -21 57 -42 57 -46 0 -5 6 -9 14 -9 8 0 21 -6
28 -13 7 -7 56 -40 108 -74 52 -34 100 -67 107 -72 6 -6 29 -20 50 -32 21 -12
49 -29 63 -39 70 -48 448 -270 462 -270 4 0 8 -5 8 -12 0 -6 3 -8 6 -5 4 4 19
-2 33 -12 14 -10 64 -38 111 -61 47 -24 102 -54 123 -67 20 -13 37 -21 37 -19
0 3 32 -13 71 -35 40 -21 74 -39 76 -39 3 0 50 -22 106 -49 138 -66 198 -93
362 -163 132 -57 458 -188 480 -193 12 -2 43 -14 70 -25 24 -11 254 -90 275
-95 8 -2 15 -4 15 -5 0 -1 10 -3 23 -6 17 -3 21 0 16 8 -10 18 -107 160 -117
173 -27 34 -367 556 -367 563 0 5 -9 17 -20 27 -11 10 -20 22 -20 26 0 5 -24
46 -53 91 -30 46 -62 99 -73 118 -10 19 -22 37 -25 40 -16 12 -324 537 -409
695 -18 33 -54 101 -81 150 -45 83 -194 381 -268 534 -17 36 -31 70 -31 76 0
6 -6 17 -12 24 -7 6 -13 15 -14 19 0 4 -9 27 -21 52 -34 74 -59 130 -103 235
-23 55 -48 114 -55 130 -7 17 -22 55 -34 85 -12 30 -26 64 -31 75 -4 11 -18
47 -30 80 -12 33 -27 71 -32 85 -20 48 -27 65 -47 124 l-20 59 128 126 c156
153 268 260 386 366 48 44 103 94 120 110 18 17 52 46 76 66 24 21 56 48 70
60 14 13 37 33 50 44 83 68 145 121 149 125 5 6 257 206 298 238 12 9 28 22
35 28 13 11 416 320 482 369 22 16 45 33 50 37 13 10 72 56 115 88 199 150
229 173 258 200 12 11 22 18 22 15 0 -5 77 55 140 108 l25 22 -50 7 c-88 12
-128 18 -159 24 -40 8 -60 11 -121 18 -27 4 -66 8 -85 11 -19 2 -55 7 -80 10
-25 3 -59 7 -76 9 -17 3 -68 8 -115 11 -46 4 -100 8 -119 10 -19 2 -111 7
-205 10 -93 4 -181 8 -195 9 -14 1 -31 -3 -37 -8 -8 -5 -13 -5 -13 0 0 5 -44
8 -97 7 -156 -3 -402 -12 -473 -18 -36 -3 -101 -7 -145 -10 -79 -5 -178 -13
-245 -20 -19 -2 -71 -7 -115 -10 -44 -3 -91 -7 -105 -10 -28 -5 -120 -16 -165
-20 -80 -7 -173 -17 -199 -21 l-29 -5 7 188 c3 103 8 213 10 243 9 113 35 376
42 415 2 17 7 50 9 75 3 25 8 63 11 85 4 22 8 51 9 65 2 14 8 59 14 100 6 41
14 93 17 115 6 44 11 79 20 128 3 17 7 43 9 57 4 32 14 88 20 120 3 14 7 39 9
55 6 45 15 95 26 145 5 25 11 59 14 75 6 41 55 276 62 298 8 27 -5 21 -91 -39z"/>
<path d="M1675 5080 c-22 -4 -58 -11 -80 -14 -43 -7 -254 -43 -295 -51 -14 -2
-41 -7 -60 -9 -19 -3 -44 -7 -55 -9 -11 -3 -40 -8 -65 -12 -25 -4 -54 -9 -65
-11 -24 -4 -201 -33 -234 -39 -13 -2 -25 -6 -27 -7 -3 -4 54 -161 98 -273 11
-27 25 -65 32 -82 6 -18 14 -33 18 -33 5 0 8 -6 8 -14 0 -18 36 -99 128 -286
99 -202 162 -314 172 -303 4 4 23 55 43 113 19 58 41 119 48 135 7 17 13 32
14 35 26 98 255 613 308 693 10 15 16 27 13 27 -4 0 4 17 17 38 12 20 29 51
37 67 8 17 19 33 25 37 13 10 -27 8 -80 -2z"/>
</g>
</svg>
