<?xml version="1.0" encoding="utf-8"?>
<!-- Generator: Adobe Illustrator 23.0.6, SVG Export Plug-In . SVG Version: 6.00 Build 0)  -->
<svg version="1.1" id="Layer_1" xmlns="http://www.w3.org/2000/svg" xmlns:xlink="http://www.w3.org/1999/xlink" x="0px" y="0px"
	 viewBox="0 0 152.2 191.5" style="enable-background:new 0 0 152.2 191.5;" xml:space="preserve">
<style type="text/css">
	.st0{fill-rule:evenodd;clip-rule:evenodd;fill:#87CEEB;}
</style>
<title>travelstar-logo</title>
<path class="st0" d="M88.7,0c-59.9,41-89.8,112.2-77,189.5c12-16.5,24-33,38.3-48.5c25.9,22.7,56.1,39.9,88.9,50.4
	c-16.7-24.8-34-51-46.7-86.7c22.4-22.8,38.5-33.1,59.9-49.9c-21.9-3.8-37.7-4.1-70.4-0.2C81.3,40.2,86,11.8,88.7,0L88.7,0z
	 M24.1,64.5L0,68.6c3,8.7,6.8,17.2,11.4,25.2C14.7,83.6,18.9,73.8,24.1,64.5z"/>
</svg>
